<?xml version="1.0" encoding="utf-8"?>
<!-- Generator: Adobe Illustrator 16.0.0, SVG Export Plug-In . SVG Version: 6.00 Build 0)  -->
<!DOCTYPE svg PUBLIC "-//W3C//DTD SVG 1.1//EN" "http://www.w3.org/Graphics/SVG/1.1/DTD/svg11.dtd">
<svg version="1.1" id="Layer_1" xmlns="http://www.w3.org/2000/svg" xmlns:xlink="http://www.w3.org/1999/xlink" x="0px" y="0px"
	 width="528.484px" height="221.164px" viewBox="0 0 528.484 221.164" enable-background="new 0 0 528.484 221.164"
	 xml:space="preserve">
<g>
	<g>
		
			<rect x="260.242" y="-64.894" transform="matrix(0.0662 0.9978 -0.9978 0.0662 445.9851 -77.2096)" fill="#FEDB00" width="8" height="529.115"/>
	</g>
	<g>
		
			<rect x="260.242" y="-243.057" transform="matrix(0.0662 0.9978 -0.9978 0.0662 268.2122 -243.5852)" fill="#FEDB00" width="8" height="529.115"/>
	</g>
	<g>
		<path fill="#333333" d="M129.87,162.977l-55.196,3.859v-5.613c1.199-0.18,2.951-0.446,5.253-0.799s3.886-0.751,4.75-1.196
			c1.774-0.844,2.998-1.876,3.67-3.099c0.671-1.222,1.007-2.744,1.007-4.568v-35.189l-43.609,3.05v34.398
			c0,1.631,0.348,3.07,1.044,4.316c0.694,1.246,1.882,2.171,3.562,2.773c0.91,0.32,2.47,0.617,4.677,0.896
			c2.206,0.277,4.005,0.415,5.397,0.413v5.613L5.23,171.691v-5.613c1.199-0.13,2.962-0.41,5.29-0.837
			c2.326-0.426,4.018-0.868,5.073-1.327c1.727-0.742,2.926-1.774,3.598-3.093c0.671-1.318,1.008-2.842,1.008-4.568v-72.25
			c0-1.679-0.301-3.074-0.9-4.183c-0.601-1.109-1.835-2.031-3.706-2.763c-1.392-0.526-3.214-0.963-5.469-1.309
			c-2.255-0.346-3.886-0.531-4.894-0.557v-5.613l55.195-3.86v5.613c-1.487,0.201-3.263,0.564-5.325,1.092
			c-2.063,0.529-3.646,0.999-4.749,1.411c-1.872,0.755-3.107,1.836-3.707,3.246c-0.601,1.41-0.899,2.882-0.899,4.417v30.512
			l43.609-3.05V79.167c0-1.679-0.312-3.073-0.936-4.181c-0.624-1.107-1.871-2.028-3.742-2.761c-1.248-0.489-2.914-0.911-5.001-1.269
			c-2.086-0.358-3.754-0.566-5.001-0.622v-5.613l55.196-3.86v5.613c-1.536,0.204-3.263,0.528-5.182,0.974
			c-1.919,0.448-3.646,0.964-5.181,1.55c-1.824,0.751-3.047,1.822-3.67,3.208c-0.624,1.387-0.935,2.871-0.935,4.455v72.323
			c0,1.727,0.311,3.169,0.935,4.324c0.623,1.155,1.847,2.077,3.67,2.766c1.151,0.399,2.818,0.715,5.001,0.945
			c2.183,0.231,3.969,0.346,5.361,0.344V162.977z"/>
		<path fill="#333333" d="M209,140.243c-1.68,2.853-3.706,5.574-6.081,8.162c-2.375,2.589-5.074,4.852-8.096,6.791
			c-3.215,2.049-6.465,3.654-9.751,4.819c-3.287,1.165-7.064,1.897-11.334,2.196c-7.101,0.496-13.23-0.083-18.386-1.737
			c-5.158-1.653-9.416-4.066-12.773-7.239c-3.359-3.17-5.865-7.012-7.52-11.527c-1.656-4.514-2.483-9.48-2.483-14.902
			c0-4.894,0.899-9.645,2.699-14.258c1.799-4.61,4.354-8.783,7.664-12.518c3.262-3.633,7.376-6.68,12.341-9.139
			c4.965-2.458,10.518-3.901,16.66-4.331c6.716-0.469,12.234-0.039,16.551,1.289c4.317,1.33,7.891,3.334,10.722,6.015
			c2.735,2.543,4.725,5.631,5.973,9.261c1.247,3.632,1.871,7.486,1.871,11.563v4.678l-48.647,3.402
			c0,9.835,1.895,17.188,5.685,22.055c3.79,4.869,9.811,7.014,18.063,6.438c4.509-0.316,8.563-1.834,12.162-4.557
			s6.667-6.067,9.211-10.036L209,140.243z M181.51,114.82c0-2.879-0.144-5.819-0.432-8.821c-0.288-3.002-0.792-5.437-1.511-7.307
			c-0.816-2.197-1.932-3.823-3.347-4.875c-1.416-1.052-3.202-1.502-5.361-1.352c-3.695,0.258-6.646,2.336-8.852,6.231
			c-2.208,3.896-3.407,9.906-3.598,18.027L181.51,114.82z"/>
		<path fill="#333333" d="M252.508,154.4l-45.337,3.171v-5.254c1.255-0.184,2.475-0.389,3.658-0.615
			c1.183-0.227,2.234-0.539,3.152-0.94c1.545-0.684,2.596-1.585,3.152-2.703s0.833-2.563,0.833-4.341V63.984
			c0-1.822-0.373-3.488-1.116-4.995c-0.744-1.507-1.739-2.625-2.986-3.354c-0.96-0.555-2.411-1.054-4.354-1.494
			c-1.943-0.439-3.659-0.654-5.145-0.647V48.24l36.267-4.407l1.082,1.076v96.214c0,1.776,0.313,3.193,0.941,4.252
			c0.627,1.062,1.643,1.854,3.044,2.379c0.964,0.363,1.979,0.678,3.042,0.938c1.062,0.262,2.318,0.413,3.768,0.456V154.4z"/>
		<path fill="#333333" d="M339.553,113.268c0,10.123-3.377,19.043-10.133,26.76c-6.755,7.716-15.307,11.937-25.656,12.66
			c-4.601,0.321-8.338,0.115-11.212-0.619c-2.875-0.735-5.246-1.708-7.115-2.921l-0.574,0.041v20.221
			c0,1.679,0.37,3.116,1.114,4.312c0.744,1.194,1.787,2.033,3.131,2.515c1.295,0.438,3.131,0.788,5.506,1.055
			c2.375,0.266,4.354,0.39,5.938,0.376v5.325l-52.03,3.639v-5.325c1.199-0.181,2.709-0.466,4.534-0.856
			c1.823-0.393,3.19-0.763,4.102-1.115c1.535-0.636,2.578-1.607,3.13-2.917c0.551-1.311,0.828-2.781,0.828-4.411V98.388
			c-0.145-1.573-0.517-2.938-1.116-4.096c-0.601-1.157-1.547-2.146-2.842-2.967c-0.961-0.556-2.231-0.983-3.814-1.281
			c-1.583-0.297-3.143-0.464-4.678-0.5v-5.254l35.115-4.325l1.082,0.859v7.988l0.574,0.103c3.161-3.434,6.673-6.174,10.528-8.219
			c3.857-2.044,7.678-3.2,11.465-3.465c9.917-0.693,17.749,2.273,23.5,8.899C336.679,92.756,339.553,101.802,339.553,113.268z
			 M313.719,115.362c0-3.599-0.263-7.021-0.789-10.272c-0.526-3.249-1.459-6.123-2.8-8.62c-1.293-2.5-3.003-4.442-5.133-5.83
			c-2.13-1.386-4.726-1.972-7.788-1.758c-3.111,0.218-5.6,0.932-7.466,2.142c-1.866,1.209-3.493,2.727-4.881,4.551v40.802
			c0.286,0.94,0.837,2.137,1.65,3.591c0.814,1.454,1.628,2.61,2.44,3.464c1.197,1.211,2.561,2.076,4.092,2.592
			c1.531,0.518,3.207,0.712,5.025,0.584c4.737-0.33,8.529-3.15,11.377-8.459S313.719,125.246,313.719,115.362z"/>
		<path fill="#333333" d="M409.544,44.255c0,1.199-0.191,2.532-0.575,3.998c-0.385,1.466-1.008,2.733-1.871,3.801
			c-1.008,1.27-2.135,2.261-3.382,2.971c-1.248,0.711-3.119,1.153-5.613,1.328c-3.791,0.265-6.765-0.847-8.924-3.334
			c-2.158-2.487-4.462-6.716-6.908-12.686c-1.92,0.948-3.479,3.164-4.678,6.646c-1.2,3.482-1.799,10.825-1.799,22.028v5.673
			l19.861-1.389v7.844l-19.718,1.379v49.521c0,1.868,0.432,3.289,1.296,4.258c0.863,0.97,1.99,1.646,3.383,2.027
			c1.15,0.304,2.662,0.569,4.532,0.798c1.872,0.229,3.55,0.361,5.038,0.402v5.252l-48.646,3.402v-5.253
			c1.255-0.184,2.475-0.388,3.657-0.615c1.183-0.226,2.234-0.539,3.151-0.94c1.546-0.682,2.597-1.582,3.151-2.698
			c0.557-1.116,0.834-2.562,0.834-4.335V84.165l-14.608,1.021v-7.844l14.608-1.021c0-5.124,0.744-10.145,2.23-15.061
			c1.487-4.917,3.789-9.376,6.908-13.379c3.023-3.947,7.005-7.242,11.947-9.885c4.939-2.644,10.745-4.2,17.414-4.667
			c5.948-0.416,10.554,0.39,13.816,2.417C407.913,37.773,409.544,40.61,409.544,44.255z"/>
		<path fill="#333333" d="M485.869,136.571l-34.326,4.487l-1.079-0.933V130.7l-0.431,0.029c-1.63,1.602-3.223,3.164-4.779,4.688
			c-1.557,1.524-3.414,2.938-5.569,4.24c-2.443,1.467-4.755,2.587-6.935,3.363c-2.18,0.775-5.354,1.311-9.521,1.602
			c-7.234,0.506-12.778-1.289-16.635-5.386c-3.857-4.096-5.784-10.126-5.784-18.09V88.763c0-1.871-0.357-3.369-1.073-4.494
			c-0.715-1.125-1.67-2.102-2.861-2.931c-0.954-0.652-2.194-1.081-3.72-1.287c-1.525-0.205-2.909-0.311-4.147-0.321v-5.254
			l34.761-4.301l0.789,1.024v47.855c0,4.941,0.945,8.522,2.842,10.739c1.895,2.22,4.497,3.212,7.808,2.98
			c3.406-0.238,6.465-1.339,9.176-3.304c2.709-1.964,4.688-3.999,5.937-6.101V84.581c0-1.63-0.312-3.072-0.935-4.324
			c-0.625-1.251-1.537-2.242-2.735-2.975c-0.863-0.516-2.099-0.812-3.706-0.892c-1.607-0.079-3.251-0.107-4.93-0.087v-5.254
			l34.973-4.315l1.081,1.003v55.555c0,1.68,0.333,3.084,1,4.212c0.669,1.129,1.646,2.056,2.934,2.781
			c0.906,0.513,2.085,0.825,3.54,0.939s2.897,0.146,4.328,0.093V136.571z"/>
		<path fill="#333333" d="M528.37,135.11l-45.337,3.17v-5.252c1.255-0.184,2.475-0.39,3.658-0.617
			c1.183-0.226,2.234-0.539,3.151-0.939c1.546-0.684,2.597-1.585,3.152-2.703c0.555-1.117,0.832-2.564,0.832-4.34V44.694
			c0-1.822-0.372-3.488-1.115-4.995c-0.744-1.507-1.738-2.625-2.985-3.354c-0.961-0.555-2.411-1.054-4.354-1.494
			c-1.944-0.439-3.659-0.654-5.146-0.647V28.95l36.268-4.407l1.081,1.076v96.214c0,1.776,0.313,3.192,0.941,4.253
			c0.627,1.061,1.644,1.853,3.044,2.377c0.965,0.365,1.979,0.679,3.042,0.939c1.062,0.262,2.318,0.413,3.768,0.456V135.11z"/>
	</g>
</g>
<g>
</g>
<g>
</g>
<g>
</g>
<g>
</g>
<g>
</g>
<g>
</g>
</svg>
